<mxfile host="Electron" modified="2024-03-27T14:32:16.549Z" agent="Mozilla/5.0 (Windows NT 10.0; Win64; x64) AppleWebKit/537.36 (KHTML, like Gecko) draw.io/22.0.3 Chrome/114.0.5735.289 Electron/25.8.4 Safari/537.36" etag="G34HPmV-o16qorqCqT9Z" version="22.0.3" type="device" pages="6">
  <diagram id="PWKqJU9h4z2_3BDD-1fH" name="AWS Connection">
    <mxGraphModel dx="1434" dy="836" grid="1" gridSize="10" guides="1" tooltips="1" connect="1" arrows="1" fold="1" page="1" pageScale="1" pageWidth="850" pageHeight="1100" math="0" shadow="0">
      <root>
        <mxCell id="0" />
        <mxCell id="1" parent="0" />
        <mxCell id="SrMrL3FoXA2SpPnWkfGv-1" value="AWS - US West 1" style="rounded=1;whiteSpace=wrap;html=1;fontSize=16;verticalAlign=top;align=center;fillColor=#e1d5e7;strokeColor=#9673a6;" vertex="1" parent="1">
          <mxGeometry x="30" y="210" width="260" height="220" as="geometry" />
        </mxCell>
        <mxCell id="SrMrL3FoXA2SpPnWkfGv-2" value="Transit&lt;br style=&quot;font-size: 16px;&quot;&gt;Gateway" style="shape=hexagon;perimeter=hexagonPerimeter2;whiteSpace=wrap;html=1;fixedSize=1;fontSize=16;fillColor=#dae8fc;strokeColor=#6c8ebf;" vertex="1" parent="1">
          <mxGeometry x="220" y="287.5" width="90" height="60" as="geometry" />
        </mxCell>
        <mxCell id="SrMrL3FoXA2SpPnWkfGv-4" value="Customer&lt;br style=&quot;font-size: 14px;&quot;&gt;Gateway" style="shape=hexagon;perimeter=hexagonPerimeter2;whiteSpace=wrap;html=1;fixedSize=1;fontSize=14;fillColor=#dae8fc;strokeColor=#6c8ebf;" vertex="1" parent="1">
          <mxGeometry x="480" y="235" width="90" height="60" as="geometry" />
        </mxCell>
        <mxCell id="SrMrL3FoXA2SpPnWkfGv-5" value="" style="rounded=1;whiteSpace=wrap;html=1;fontSize=16;verticalAlign=top;align=center;glass=1;fillColor=#d5e8d4;strokeColor=#82b366;rotation=90;" vertex="1" parent="1">
          <mxGeometry x="583.75" y="240" width="237.5" height="155" as="geometry" />
        </mxCell>
        <mxCell id="SrMrL3FoXA2SpPnWkfGv-6" value="Other Provider" style="text;html=1;strokeColor=none;fillColor=none;align=center;verticalAlign=middle;whiteSpace=wrap;rounded=0;fontSize=16;" vertex="1" parent="1">
          <mxGeometry x="642.5" y="210" width="120" height="30" as="geometry" />
        </mxCell>
        <mxCell id="SrMrL3FoXA2SpPnWkfGv-7" value="Public IP" style="rounded=0;whiteSpace=wrap;html=1;fontSize=16;fillColor=#60a917;fontColor=#ffffff;strokeColor=#2D7600;" vertex="1" parent="1">
          <mxGeometry x="600" y="250" width="70" height="30" as="geometry" />
        </mxCell>
        <mxCell id="SrMrL3FoXA2SpPnWkfGv-8" value="Public IP" style="rounded=0;whiteSpace=wrap;html=1;fontSize=16;fillColor=#60a917;strokeColor=#2D7600;fontColor=#ffffff;" vertex="1" parent="1">
          <mxGeometry x="600" y="370" width="70" height="30" as="geometry" />
        </mxCell>
        <mxCell id="SrMrL3FoXA2SpPnWkfGv-9" value="Customer&lt;br style=&quot;font-size: 14px;&quot;&gt;Gateway" style="shape=hexagon;perimeter=hexagonPerimeter2;whiteSpace=wrap;html=1;fixedSize=1;fontSize=14;fillColor=#dae8fc;strokeColor=#6c8ebf;" vertex="1" parent="1">
          <mxGeometry x="480" y="355" width="90" height="60" as="geometry" />
        </mxCell>
        <mxCell id="SrMrL3FoXA2SpPnWkfGv-10" value="VPN Connection" style="endArrow=none;html=1;rounded=0;strokeWidth=3;exitX=1;exitY=0.25;exitDx=0;exitDy=0;entryX=0;entryY=0.5;entryDx=0;entryDy=0;fontSize=14;fillColor=#dae8fc;strokeColor=#6c8ebf;" edge="1" parent="1" source="SrMrL3FoXA2SpPnWkfGv-2" target="SrMrL3FoXA2SpPnWkfGv-4">
          <mxGeometry x="-0.0036" width="50" height="50" relative="1" as="geometry">
            <mxPoint x="310" y="150" as="sourcePoint" />
            <mxPoint x="430" y="150" as="targetPoint" />
            <mxPoint as="offset" />
          </mxGeometry>
        </mxCell>
        <mxCell id="SrMrL3FoXA2SpPnWkfGv-11" value="Workload&lt;br style=&quot;font-size: 16px;&quot;&gt;VPC" style="rounded=1;whiteSpace=wrap;html=1;fontSize=16;fillColor=#fff2cc;strokeColor=#d6b656;" vertex="1" parent="1">
          <mxGeometry x="60" y="287.5" width="100" height="60" as="geometry" />
        </mxCell>
        <mxCell id="SrMrL3FoXA2SpPnWkfGv-12" value="" style="endArrow=none;html=1;rounded=0;strokeWidth=3;exitX=1;exitY=0.5;exitDx=0;exitDy=0;entryX=0;entryY=0.5;entryDx=0;entryDy=0;fillColor=#fff2cc;strokeColor=#d6b656;" edge="1" parent="1" source="SrMrL3FoXA2SpPnWkfGv-11" target="SrMrL3FoXA2SpPnWkfGv-2">
          <mxGeometry width="50" height="50" relative="1" as="geometry">
            <mxPoint x="300" y="180" as="sourcePoint" />
            <mxPoint x="420" y="180" as="targetPoint" />
          </mxGeometry>
        </mxCell>
        <mxCell id="SrMrL3FoXA2SpPnWkfGv-13" value="" style="endArrow=none;dashed=1;html=1;dashPattern=1 3;strokeWidth=2;rounded=0;" edge="1" parent="1">
          <mxGeometry width="50" height="50" relative="1" as="geometry">
            <mxPoint x="190" y="370" as="sourcePoint" />
            <mxPoint x="190" y="320" as="targetPoint" />
          </mxGeometry>
        </mxCell>
        <mxCell id="SrMrL3FoXA2SpPnWkfGv-14" value="Attachement" style="text;html=1;strokeColor=none;fillColor=none;align=center;verticalAlign=middle;whiteSpace=wrap;rounded=0;fontSize=14;" vertex="1" parent="1">
          <mxGeometry x="140" y="370" width="100" height="30" as="geometry" />
        </mxCell>
        <mxCell id="SrMrL3FoXA2SpPnWkfGv-15" value="VPN Connection" style="endArrow=none;html=1;rounded=0;strokeWidth=3;exitX=1;exitY=0.75;exitDx=0;exitDy=0;entryX=0;entryY=0.5;entryDx=0;entryDy=0;fontSize=14;fillColor=#dae8fc;strokeColor=#6c8ebf;" edge="1" parent="1" source="SrMrL3FoXA2SpPnWkfGv-2" target="SrMrL3FoXA2SpPnWkfGv-9">
          <mxGeometry x="-0.0036" width="50" height="50" relative="1" as="geometry">
            <mxPoint x="331" y="550" as="sourcePoint" />
            <mxPoint x="509" y="510" as="targetPoint" />
            <mxPoint as="offset" />
          </mxGeometry>
        </mxCell>
      </root>
    </mxGraphModel>
  </diagram>
  <diagram id="XlFRcIoD8Dsn5JxCOERf" name="AWS Tunnels">
    <mxGraphModel dx="1434" dy="836" grid="1" gridSize="10" guides="1" tooltips="1" connect="1" arrows="1" fold="1" page="1" pageScale="1" pageWidth="850" pageHeight="1100" math="0" shadow="0">
      <root>
        <mxCell id="0" />
        <mxCell id="1" parent="0" />
        <mxCell id="QWLnvlJZqScdl_SzkhFh-1" value="AWS - US West 1" style="rounded=1;whiteSpace=wrap;html=1;fontSize=16;verticalAlign=top;align=center;fillColor=#e1d5e7;strokeColor=#9673a6;" vertex="1" parent="1">
          <mxGeometry x="60" y="530" width="240" height="220" as="geometry" />
        </mxCell>
        <mxCell id="QWLnvlJZqScdl_SzkhFh-2" value="Transit&lt;br style=&quot;font-size: 16px;&quot;&gt;Gateway" style="shape=hexagon;perimeter=hexagonPerimeter2;whiteSpace=wrap;html=1;fixedSize=1;fontSize=16;fillColor=#dae8fc;strokeColor=#6c8ebf;" vertex="1" parent="1">
          <mxGeometry x="240" y="550" width="90" height="180" as="geometry" />
        </mxCell>
        <mxCell id="QWLnvlJZqScdl_SzkhFh-3" value="Public IP" style="rounded=0;whiteSpace=wrap;html=1;fontSize=16;fillColor=#0050ef;fontColor=#ffffff;strokeColor=#001DBC;" vertex="1" parent="1">
          <mxGeometry x="290" y="560" width="70" height="20" as="geometry" />
        </mxCell>
        <mxCell id="QWLnvlJZqScdl_SzkhFh-4" value="Public IP" style="rounded=0;whiteSpace=wrap;html=1;fontSize=16;fillColor=#0050ef;fontColor=#ffffff;strokeColor=#001DBC;" vertex="1" parent="1">
          <mxGeometry x="290" y="600" width="70" height="20" as="geometry" />
        </mxCell>
        <mxCell id="QWLnvlJZqScdl_SzkhFh-5" value="Public IP" style="rounded=0;whiteSpace=wrap;html=1;fontSize=16;fillColor=#0050ef;fontColor=#ffffff;strokeColor=#001DBC;" vertex="1" parent="1">
          <mxGeometry x="290" y="660" width="70" height="20" as="geometry" />
        </mxCell>
        <mxCell id="QWLnvlJZqScdl_SzkhFh-6" value="Public IP" style="rounded=0;whiteSpace=wrap;html=1;fontSize=16;fillColor=#0050ef;fontColor=#ffffff;strokeColor=#001DBC;" vertex="1" parent="1">
          <mxGeometry x="290" y="700" width="70" height="20" as="geometry" />
        </mxCell>
        <mxCell id="QWLnvlJZqScdl_SzkhFh-7" value="&amp;nbsp;IPSec VPN Tunnel&amp;nbsp;" style="endArrow=none;html=1;rounded=0;strokeWidth=3;exitX=1;exitY=0.5;exitDx=0;exitDy=0;fontSize=13;" edge="1" parent="1" source="QWLnvlJZqScdl_SzkhFh-3">
          <mxGeometry width="50" height="50" relative="1" as="geometry">
            <mxPoint x="410" y="575" as="sourcePoint" />
            <mxPoint x="560" y="570" as="targetPoint" />
          </mxGeometry>
        </mxCell>
        <mxCell id="QWLnvlJZqScdl_SzkhFh-8" value="&amp;nbsp;IPSec VPN Tunnel&amp;nbsp;" style="endArrow=none;html=1;rounded=0;strokeWidth=3;exitX=1;exitY=0.5;exitDx=0;exitDy=0;fontSize=13;" edge="1" parent="1">
          <mxGeometry width="50" height="50" relative="1" as="geometry">
            <mxPoint x="360" y="609.5" as="sourcePoint" />
            <mxPoint x="560" y="610" as="targetPoint" />
          </mxGeometry>
        </mxCell>
        <mxCell id="QWLnvlJZqScdl_SzkhFh-9" value="&amp;nbsp;IPSec VPN Tunnel&amp;nbsp;" style="endArrow=none;html=1;rounded=0;strokeWidth=3;exitX=1;exitY=0.5;exitDx=0;exitDy=0;fontSize=13;" edge="1" parent="1">
          <mxGeometry width="50" height="50" relative="1" as="geometry">
            <mxPoint x="360" y="669.5" as="sourcePoint" />
            <mxPoint x="560" y="670" as="targetPoint" />
          </mxGeometry>
        </mxCell>
        <mxCell id="QWLnvlJZqScdl_SzkhFh-10" value="&amp;nbsp;IPSec VPN Tunnel&amp;nbsp;" style="endArrow=none;html=1;rounded=0;strokeWidth=3;exitX=1;exitY=0.5;exitDx=0;exitDy=0;fontSize=13;" edge="1" parent="1">
          <mxGeometry width="50" height="50" relative="1" as="geometry">
            <mxPoint x="360" y="709.5" as="sourcePoint" />
            <mxPoint x="560" y="710" as="targetPoint" />
          </mxGeometry>
        </mxCell>
        <mxCell id="QWLnvlJZqScdl_SzkhFh-11" value="Workload&lt;br style=&quot;font-size: 16px;&quot;&gt;VPC" style="rounded=1;whiteSpace=wrap;html=1;fontSize=16;fillColor=#fff2cc;strokeColor=#d6b656;" vertex="1" parent="1">
          <mxGeometry x="80" y="607.5" width="100" height="60" as="geometry" />
        </mxCell>
        <mxCell id="QWLnvlJZqScdl_SzkhFh-12" value="" style="endArrow=none;html=1;rounded=0;strokeWidth=3;exitX=1;exitY=0.5;exitDx=0;exitDy=0;entryX=0;entryY=0.5;entryDx=0;entryDy=0;fillColor=#fff2cc;strokeColor=#d6b656;" edge="1" parent="1" source="QWLnvlJZqScdl_SzkhFh-11">
          <mxGeometry width="50" height="50" relative="1" as="geometry">
            <mxPoint x="320" y="500" as="sourcePoint" />
            <mxPoint x="240" y="638" as="targetPoint" />
          </mxGeometry>
        </mxCell>
        <mxCell id="QWLnvlJZqScdl_SzkhFh-13" value="" style="endArrow=none;dashed=1;html=1;dashPattern=1 3;strokeWidth=2;rounded=0;" edge="1" parent="1">
          <mxGeometry width="50" height="50" relative="1" as="geometry">
            <mxPoint x="210" y="690" as="sourcePoint" />
            <mxPoint x="210" y="640" as="targetPoint" />
          </mxGeometry>
        </mxCell>
        <mxCell id="QWLnvlJZqScdl_SzkhFh-14" value="Attachement" style="text;html=1;strokeColor=none;fillColor=none;align=center;verticalAlign=middle;whiteSpace=wrap;rounded=0;fontSize=14;" vertex="1" parent="1">
          <mxGeometry x="160" y="690" width="100" height="30" as="geometry" />
        </mxCell>
        <mxCell id="QWLnvlJZqScdl_SzkhFh-15" value="" style="rounded=1;whiteSpace=wrap;html=1;fontSize=16;verticalAlign=top;align=center;glass=1;fillColor=#d5e8d4;strokeColor=#82b366;rotation=90;" vertex="1" parent="1">
          <mxGeometry x="550" y="565" width="237.5" height="155" as="geometry" />
        </mxCell>
        <mxCell id="QWLnvlJZqScdl_SzkhFh-16" value="Other Provider" style="text;html=1;strokeColor=none;fillColor=none;align=center;verticalAlign=middle;whiteSpace=wrap;rounded=0;fontSize=16;" vertex="1" parent="1">
          <mxGeometry x="608.75" y="535" width="120" height="30" as="geometry" />
        </mxCell>
        <mxCell id="QWLnvlJZqScdl_SzkhFh-17" value="Public IP" style="rounded=0;whiteSpace=wrap;html=1;fontSize=16;fillColor=#60a917;fontColor=#ffffff;strokeColor=#2D7600;" vertex="1" parent="1">
          <mxGeometry x="560" y="560" width="70" height="60" as="geometry" />
        </mxCell>
        <mxCell id="QWLnvlJZqScdl_SzkhFh-18" value="Public IP" style="rounded=0;whiteSpace=wrap;html=1;fontSize=16;fillColor=#60a917;fontColor=#ffffff;strokeColor=#2D7600;" vertex="1" parent="1">
          <mxGeometry x="560" y="660" width="70" height="60" as="geometry" />
        </mxCell>
      </root>
    </mxGraphModel>
  </diagram>
  <diagram id="iwmL0UJF6jBlyn76qd_4" name="GCP Connection">
    <mxGraphModel dx="1434" dy="836" grid="1" gridSize="10" guides="1" tooltips="1" connect="1" arrows="1" fold="1" page="1" pageScale="1" pageWidth="850" pageHeight="1100" math="0" shadow="0">
      <root>
        <mxCell id="0" />
        <mxCell id="1" parent="0" />
        <mxCell id="fcxTeQBKjg00uudCinYW-1" value="GCP - US East 4" style="rounded=1;whiteSpace=wrap;html=1;fontSize=16;verticalAlign=top;align=center;fillColor=#e1d5e7;strokeColor=#9673a6;" vertex="1" parent="1">
          <mxGeometry x="40" y="290" width="370" height="290" as="geometry" />
        </mxCell>
        <mxCell id="fcxTeQBKjg00uudCinYW-2" value="Network" style="rounded=1;whiteSpace=wrap;html=1;verticalAlign=top;fillColor=#ABDEFC;strokeColor=#6c8ebf;" vertex="1" parent="1">
          <mxGeometry x="260" y="330" width="150" height="220" as="geometry" />
        </mxCell>
        <mxCell id="fcxTeQBKjg00uudCinYW-3" value="Network" style="rounded=1;whiteSpace=wrap;html=1;verticalAlign=top;fontSize=14;fillColor=#fff2cc;strokeColor=#d6b656;" vertex="1" parent="1">
          <mxGeometry x="60" y="355" width="130" height="120" as="geometry" />
        </mxCell>
        <mxCell id="fcxTeQBKjg00uudCinYW-4" value="VPN&lt;br&gt;Gateway" style="shape=hexagon;perimeter=hexagonPerimeter2;whiteSpace=wrap;html=1;fixedSize=1;fillColor=#dae8fc;strokeColor=#6c8ebf;" vertex="1" parent="1">
          <mxGeometry x="360" y="360" width="70" height="100" as="geometry" />
        </mxCell>
        <mxCell id="fcxTeQBKjg00uudCinYW-5" value="Subnet" style="rounded=1;whiteSpace=wrap;html=1;fillColor=#ffe6cc;strokeColor=#d79b00;fontSize=14;" vertex="1" parent="1">
          <mxGeometry x="80" y="400" width="90" height="60" as="geometry" />
        </mxCell>
        <mxCell id="fcxTeQBKjg00uudCinYW-7" value="Cloud&lt;br&gt;Router" style="rhombus;whiteSpace=wrap;html=1;fillColor=#dae8fc;strokeColor=#6c8ebf;" vertex="1" parent="1">
          <mxGeometry x="270" y="371.87" width="80" height="80" as="geometry" />
        </mxCell>
        <mxCell id="fcxTeQBKjg00uudCinYW-8" value="Subnet" style="rounded=1;whiteSpace=wrap;html=1;fillColor=#ffe6cc;strokeColor=#d79b00;fontSize=14;" vertex="1" parent="1">
          <mxGeometry x="270" y="470" width="90" height="60" as="geometry" />
        </mxCell>
        <mxCell id="fcxTeQBKjg00uudCinYW-9" value="" style="shape=flexArrow;endArrow=classic;startArrow=classic;html=1;rounded=0;endSize=4.33;endWidth=8;startWidth=8;startSize=4.33;" edge="1" parent="1">
          <mxGeometry width="100" height="100" relative="1" as="geometry">
            <mxPoint x="260" y="414.5" as="sourcePoint" />
            <mxPoint x="190" y="414.5" as="targetPoint" />
          </mxGeometry>
        </mxCell>
        <mxCell id="fcxTeQBKjg00uudCinYW-10" value="" style="endArrow=none;dashed=1;html=1;dashPattern=1 3;strokeWidth=2;rounded=0;" edge="1" parent="1">
          <mxGeometry width="50" height="50" relative="1" as="geometry">
            <mxPoint x="220" y="480" as="sourcePoint" />
            <mxPoint x="220" y="420" as="targetPoint" />
          </mxGeometry>
        </mxCell>
        <mxCell id="fcxTeQBKjg00uudCinYW-11" value="VPC&lt;br style=&quot;font-size: 14px;&quot;&gt;Peering" style="text;html=1;strokeColor=none;fillColor=none;align=center;verticalAlign=middle;whiteSpace=wrap;rounded=0;fontSize=14;" vertex="1" parent="1">
          <mxGeometry x="190" y="490" width="60" height="30" as="geometry" />
        </mxCell>
        <mxCell id="c2hj6E53hrK9TsNEJkse-1" value="" style="rounded=1;whiteSpace=wrap;html=1;fontSize=16;verticalAlign=top;align=center;glass=1;fillColor=#d5e8d4;strokeColor=#82b366;rotation=90;" vertex="1" parent="1">
          <mxGeometry x="660" y="323.26" width="212.83" height="155" as="geometry" />
        </mxCell>
        <mxCell id="c2hj6E53hrK9TsNEJkse-2" value="Other Provider" style="text;html=1;strokeColor=none;fillColor=none;align=center;verticalAlign=middle;whiteSpace=wrap;rounded=0;fontSize=16;" vertex="1" parent="1">
          <mxGeometry x="706.41" y="306.11" width="120" height="30" as="geometry" />
        </mxCell>
        <mxCell id="c2hj6E53hrK9TsNEJkse-3" value="Public IP" style="rounded=0;whiteSpace=wrap;html=1;fontSize=16;fillColor=#60a917;fontColor=#ffffff;strokeColor=#2D7600;" vertex="1" parent="1">
          <mxGeometry x="670" y="371.87" width="70" height="24.37" as="geometry" />
        </mxCell>
        <mxCell id="c2hj6E53hrK9TsNEJkse-4" value="Public IP" style="rounded=0;whiteSpace=wrap;html=1;fontSize=16;fillColor=#60a917;strokeColor=#2D7600;fontColor=#ffffff;" vertex="1" parent="1">
          <mxGeometry x="670" y="427.5" width="70" height="24.37" as="geometry" />
        </mxCell>
        <mxCell id="c2hj6E53hrK9TsNEJkse-5" value="External&lt;br&gt;VPN&lt;br&gt;Gateway" style="shape=hexagon;perimeter=hexagonPerimeter2;whiteSpace=wrap;html=1;fixedSize=1;fillColor=#dae8fc;strokeColor=#6c8ebf;" vertex="1" parent="1">
          <mxGeometry x="590" y="330" width="70" height="160" as="geometry" />
        </mxCell>
        <mxCell id="c2hj6E53hrK9TsNEJkse-6" value="Interface" style="rounded=0;whiteSpace=wrap;html=1;fontSize=14;fillColor=#0050ef;fontColor=#ffffff;strokeColor=#001DBC;" vertex="1" parent="1">
          <mxGeometry x="410" y="360" width="70" height="30.61" as="geometry" />
        </mxCell>
        <mxCell id="c2hj6E53hrK9TsNEJkse-7" value="Interface" style="rounded=0;whiteSpace=wrap;html=1;fontSize=14;fillColor=#0050ef;fontColor=#ffffff;strokeColor=#001DBC;" vertex="1" parent="1">
          <mxGeometry x="410" y="433.13" width="70" height="26.87" as="geometry" />
        </mxCell>
        <mxCell id="c2hj6E53hrK9TsNEJkse-8" value="Public IP" style="rounded=0;whiteSpace=wrap;html=1;fontSize=16;fillColor=#60a917;strokeColor=#2D7600;fontColor=#ffffff;" vertex="1" parent="1">
          <mxGeometry x="670" y="459.37" width="70" height="24.37" as="geometry" />
        </mxCell>
        <mxCell id="c2hj6E53hrK9TsNEJkse-9" value="Public IP" style="rounded=0;whiteSpace=wrap;html=1;fontSize=16;fillColor=#60a917;strokeColor=#2D7600;fontColor=#ffffff;" vertex="1" parent="1">
          <mxGeometry x="670" y="340" width="70" height="24.37" as="geometry" />
        </mxCell>
        <mxCell id="S4P-RfGtMAUSs0XlFAuw-1" value="" style="endArrow=none;html=1;rounded=0;strokeWidth=3;fontSize=14;fillColor=#dae8fc;strokeColor=#6c8ebf;" edge="1" parent="1">
          <mxGeometry x="-0.0036" width="50" height="50" relative="1" as="geometry">
            <mxPoint x="480" y="370" as="sourcePoint" />
            <mxPoint x="590" y="350" as="targetPoint" />
            <mxPoint as="offset" />
            <Array as="points">
              <mxPoint x="540" y="370" />
              <mxPoint x="540" y="350" />
            </Array>
          </mxGeometry>
        </mxCell>
        <mxCell id="S4P-RfGtMAUSs0XlFAuw-2" value="" style="endArrow=none;html=1;rounded=0;strokeWidth=3;fontSize=14;fillColor=#dae8fc;strokeColor=#6c8ebf;" edge="1" parent="1">
          <mxGeometry x="-0.0036" width="50" height="50" relative="1" as="geometry">
            <mxPoint x="480" y="451.87" as="sourcePoint" />
            <mxPoint x="590" y="470" as="targetPoint" />
            <mxPoint as="offset" />
            <Array as="points">
              <mxPoint x="540" y="451.87" />
              <mxPoint x="540" y="470" />
            </Array>
          </mxGeometry>
        </mxCell>
        <mxCell id="S4P-RfGtMAUSs0XlFAuw-3" value="" style="endArrow=none;dashed=1;html=1;dashPattern=1 3;strokeWidth=2;rounded=0;" edge="1" parent="1">
          <mxGeometry width="50" height="50" relative="1" as="geometry">
            <mxPoint x="590" y="350" as="sourcePoint" />
            <mxPoint x="660" y="350" as="targetPoint" />
          </mxGeometry>
        </mxCell>
        <mxCell id="S4P-RfGtMAUSs0XlFAuw-4" value="" style="endArrow=none;dashed=1;html=1;dashPattern=1 3;strokeWidth=2;rounded=0;" edge="1" parent="1">
          <mxGeometry width="50" height="50" relative="1" as="geometry">
            <mxPoint x="590" y="470" as="sourcePoint" />
            <mxPoint x="660" y="470" as="targetPoint" />
          </mxGeometry>
        </mxCell>
        <mxCell id="Bv3ttn8V5d357PYASDBf-2" value="" style="endArrow=none;html=1;rounded=0;strokeWidth=3;exitX=1;exitY=0.75;exitDx=0;exitDy=0;fontSize=14;fillColor=#dae8fc;strokeColor=#6c8ebf;" edge="1" parent="1">
          <mxGeometry x="-0.0036" width="50" height="50" relative="1" as="geometry">
            <mxPoint x="480" y="380" as="sourcePoint" />
            <mxPoint x="590" y="380" as="targetPoint" />
            <mxPoint as="offset" />
            <Array as="points" />
          </mxGeometry>
        </mxCell>
        <mxCell id="Bv3ttn8V5d357PYASDBf-4" value="" style="endArrow=none;html=1;rounded=0;strokeWidth=3;exitX=1;exitY=0.75;exitDx=0;exitDy=0;fontSize=14;fillColor=#dae8fc;strokeColor=#6c8ebf;" edge="1" parent="1">
          <mxGeometry x="-0.0036" width="50" height="50" relative="1" as="geometry">
            <mxPoint x="480" y="439.5" as="sourcePoint" />
            <mxPoint x="590" y="439.5" as="targetPoint" />
            <mxPoint as="offset" />
            <Array as="points" />
          </mxGeometry>
        </mxCell>
        <mxCell id="Bv3ttn8V5d357PYASDBf-7" value="" style="endArrow=none;dashed=1;html=1;dashPattern=1 3;strokeWidth=2;rounded=0;" edge="1" parent="1">
          <mxGeometry width="50" height="50" relative="1" as="geometry">
            <mxPoint x="520" y="520" as="sourcePoint" />
            <mxPoint x="520" y="460" as="targetPoint" />
          </mxGeometry>
        </mxCell>
        <mxCell id="Bv3ttn8V5d357PYASDBf-8" value="VPN Tunnel" style="text;html=1;strokeColor=none;fillColor=none;align=center;verticalAlign=middle;whiteSpace=wrap;rounded=0;" vertex="1" parent="1">
          <mxGeometry x="490" y="530" width="60" height="30" as="geometry" />
        </mxCell>
      </root>
    </mxGraphModel>
  </diagram>
  <diagram id="JxiyuDEBfSidA0i9AQ2U" name="GCP BGP">
    <mxGraphModel dx="1434" dy="836" grid="1" gridSize="10" guides="1" tooltips="1" connect="1" arrows="1" fold="1" page="1" pageScale="1" pageWidth="850" pageHeight="1100" math="0" shadow="0">
      <root>
        <mxCell id="0" />
        <mxCell id="1" parent="0" />
        <mxCell id="90eTaaCkVlg86QVt4klJ-1" value="Cloud&lt;br&gt;Router" style="rhombus;whiteSpace=wrap;html=1;fillColor=#dae8fc;strokeColor=#6c8ebf;" vertex="1" parent="1">
          <mxGeometry x="210" y="680" width="110" height="120" as="geometry" />
        </mxCell>
        <mxCell id="90eTaaCkVlg86QVt4klJ-2" value="BGP Interface" style="rounded=0;whiteSpace=wrap;html=1;fontSize=12;fillColor=#0050ef;fontColor=#ffffff;strokeColor=#001DBC;" vertex="1" parent="1">
          <mxGeometry x="320" y="680" width="80" height="20" as="geometry" />
        </mxCell>
        <mxCell id="90eTaaCkVlg86QVt4klJ-3" value="BGP Interface" style="rounded=0;whiteSpace=wrap;html=1;fontSize=12;fillColor=#0050ef;fontColor=#ffffff;strokeColor=#001DBC;" vertex="1" parent="1">
          <mxGeometry x="320" y="780" width="80" height="20" as="geometry" />
        </mxCell>
        <mxCell id="90eTaaCkVlg86QVt4klJ-4" value="BGP Interface" style="rounded=0;whiteSpace=wrap;html=1;fontSize=12;fillColor=#0050ef;fontColor=#ffffff;strokeColor=#001DBC;" vertex="1" parent="1">
          <mxGeometry x="320" y="710" width="80" height="20" as="geometry" />
        </mxCell>
        <mxCell id="90eTaaCkVlg86QVt4klJ-5" value="BGP Interface" style="rounded=0;whiteSpace=wrap;html=1;fontSize=12;fillColor=#0050ef;fontColor=#ffffff;strokeColor=#001DBC;" vertex="1" parent="1">
          <mxGeometry x="320" y="750" width="80" height="20" as="geometry" />
        </mxCell>
        <mxCell id="90eTaaCkVlg86QVt4klJ-6" value="BGP Peer" style="rounded=0;whiteSpace=wrap;html=1;fontSize=12;fillColor=#0050ef;fontColor=#ffffff;strokeColor=#001DBC;" vertex="1" parent="1">
          <mxGeometry x="580" y="680" width="80" height="20" as="geometry" />
        </mxCell>
        <mxCell id="90eTaaCkVlg86QVt4klJ-7" value="BGP Peer" style="rounded=0;whiteSpace=wrap;html=1;fontSize=12;fillColor=#0050ef;fontColor=#ffffff;strokeColor=#001DBC;" vertex="1" parent="1">
          <mxGeometry x="580" y="710" width="80" height="20" as="geometry" />
        </mxCell>
        <mxCell id="90eTaaCkVlg86QVt4klJ-8" value="BGP Peer" style="rounded=0;whiteSpace=wrap;html=1;fontSize=12;fillColor=#0050ef;fontColor=#ffffff;strokeColor=#001DBC;" vertex="1" parent="1">
          <mxGeometry x="580" y="750" width="80" height="20" as="geometry" />
        </mxCell>
        <mxCell id="90eTaaCkVlg86QVt4klJ-9" value="BGP Peer" style="rounded=0;whiteSpace=wrap;html=1;fontSize=12;fillColor=#0050ef;fontColor=#ffffff;strokeColor=#001DBC;" vertex="1" parent="1">
          <mxGeometry x="580" y="780" width="80" height="20" as="geometry" />
        </mxCell>
        <mxCell id="90eTaaCkVlg86QVt4klJ-10" value="VPN Tunnel" style="endArrow=none;html=1;rounded=0;strokeWidth=3;exitX=1;exitY=0.75;exitDx=0;exitDy=0;fontSize=14;fillColor=#dae8fc;strokeColor=#6c8ebf;" edge="1" parent="1">
          <mxGeometry x="-0.0036" width="50" height="50" relative="1" as="geometry">
            <mxPoint x="410" y="689.5" as="sourcePoint" />
            <mxPoint x="570" y="690" as="targetPoint" />
            <mxPoint as="offset" />
            <Array as="points" />
          </mxGeometry>
        </mxCell>
        <mxCell id="90eTaaCkVlg86QVt4klJ-11" value="VPN Tunnel" style="endArrow=none;html=1;rounded=0;strokeWidth=3;exitX=1;exitY=0.75;exitDx=0;exitDy=0;fontSize=14;fillColor=#dae8fc;strokeColor=#6c8ebf;" edge="1" parent="1">
          <mxGeometry x="-0.0036" width="50" height="50" relative="1" as="geometry">
            <mxPoint x="410" y="719.5" as="sourcePoint" />
            <mxPoint x="570" y="720" as="targetPoint" />
            <mxPoint as="offset" />
            <Array as="points" />
          </mxGeometry>
        </mxCell>
        <mxCell id="90eTaaCkVlg86QVt4klJ-12" value="VPN Tunnel" style="endArrow=none;html=1;rounded=0;strokeWidth=3;exitX=1;exitY=0.75;exitDx=0;exitDy=0;fontSize=14;fillColor=#dae8fc;strokeColor=#6c8ebf;" edge="1" parent="1">
          <mxGeometry x="-0.0036" width="50" height="50" relative="1" as="geometry">
            <mxPoint x="410" y="760" as="sourcePoint" />
            <mxPoint x="570" y="760.5" as="targetPoint" />
            <mxPoint as="offset" />
            <Array as="points" />
          </mxGeometry>
        </mxCell>
        <mxCell id="90eTaaCkVlg86QVt4klJ-13" value="VPN Tunnel" style="endArrow=none;html=1;rounded=0;strokeWidth=3;exitX=1;exitY=0.75;exitDx=0;exitDy=0;fontSize=14;fillColor=#dae8fc;strokeColor=#6c8ebf;" edge="1" parent="1">
          <mxGeometry x="-0.0036" width="50" height="50" relative="1" as="geometry">
            <mxPoint x="410" y="790" as="sourcePoint" />
            <mxPoint x="570" y="790.5" as="targetPoint" />
            <mxPoint as="offset" />
            <Array as="points" />
          </mxGeometry>
        </mxCell>
      </root>
    </mxGraphModel>
  </diagram>
  <diagram id="q4z3C-9L7JrayII5eIOC" name="GCP Routing">
    <mxGraphModel dx="989" dy="577" grid="1" gridSize="10" guides="1" tooltips="1" connect="1" arrows="1" fold="1" page="1" pageScale="1" pageWidth="850" pageHeight="1100" math="0" shadow="0">
      <root>
        <mxCell id="0" />
        <mxCell id="1" parent="0" />
        <mxCell id="O68nTqHKKTAHXgfIjmy5-3" value="AWS - US West 1" style="rounded=1;whiteSpace=wrap;html=1;fontSize=16;verticalAlign=top;align=center;fillColor=#e1d5e7;strokeColor=#9673a6;" vertex="1" parent="1">
          <mxGeometry x="90" y="240" width="190" height="360" as="geometry" />
        </mxCell>
        <mxCell id="O68nTqHKKTAHXgfIjmy5-4" value="GCP - US East 4" style="rounded=1;whiteSpace=wrap;html=1;fontSize=16;verticalAlign=top;align=center;fillColor=#EAFFE9;strokeColor=#82b366;" vertex="1" parent="1">
          <mxGeometry x="400" y="240" width="400" height="360" as="geometry" />
        </mxCell>
        <mxCell id="O68nTqHKKTAHXgfIjmy5-5" value="Route VPC" style="rounded=1;whiteSpace=wrap;html=1;verticalAlign=top;fillColor=#C7D9C6;strokeColor=#82b366;" vertex="1" parent="1">
          <mxGeometry x="420" y="280" width="120" height="290" as="geometry" />
        </mxCell>
        <mxCell id="O68nTqHKKTAHXgfIjmy5-6" value="Peered VPC" style="rounded=1;whiteSpace=wrap;html=1;verticalAlign=top;fillColor=#fff2cc;strokeColor=#d6b656;" vertex="1" parent="1">
          <mxGeometry x="650" y="280" width="130" height="290" as="geometry" />
        </mxCell>
        <mxCell id="O68nTqHKKTAHXgfIjmy5-7" value="" style="endArrow=none;html=1;rounded=0;" edge="1" parent="1">
          <mxGeometry width="50" height="50" relative="1" as="geometry">
            <mxPoint x="360" y="80" as="sourcePoint" />
            <mxPoint x="290" y="30" as="targetPoint" />
          </mxGeometry>
        </mxCell>
        <mxCell id="O68nTqHKKTAHXgfIjmy5-8" value="VPN&lt;br&gt;Gateway" style="shape=hexagon;perimeter=hexagonPerimeter2;whiteSpace=wrap;html=1;fixedSize=1;fillColor=#d5e8d4;strokeColor=#82b366;" vertex="1" parent="1">
          <mxGeometry x="445" y="310" width="70" height="60" as="geometry" />
        </mxCell>
        <mxCell id="O68nTqHKKTAHXgfIjmy5-9" value="Peered&lt;br&gt;Subnet C&lt;br&gt;10.10.1.0/24" style="rounded=1;whiteSpace=wrap;html=1;fillColor=#ffe6cc;strokeColor=#d79b00;" vertex="1" parent="1">
          <mxGeometry x="670" y="395" width="90" height="60" as="geometry" />
        </mxCell>
        <mxCell id="O68nTqHKKTAHXgfIjmy5-10" value="Peered&lt;br&gt;Subnet D&lt;br&gt;10.10.2.0/24" style="rounded=1;whiteSpace=wrap;html=1;fillColor=#ffe6cc;strokeColor=#d79b00;" vertex="1" parent="1">
          <mxGeometry x="670" y="480" width="90" height="60" as="geometry" />
        </mxCell>
        <mxCell id="O68nTqHKKTAHXgfIjmy5-12" value="Cloud&lt;br&gt;Router" style="rhombus;whiteSpace=wrap;html=1;fillColor=#d5e8d4;strokeColor=#82b366;" vertex="1" parent="1">
          <mxGeometry x="440" y="385" width="80" height="80" as="geometry" />
        </mxCell>
        <mxCell id="O68nTqHKKTAHXgfIjmy5-13" value="Route&lt;br&gt;Subnet B&lt;br&gt;10.10.0.0/24" style="rounded=1;whiteSpace=wrap;html=1;fillColor=#60a917;strokeColor=#2D7600;fontColor=#ffffff;" vertex="1" parent="1">
          <mxGeometry x="435" y="480" width="90" height="60" as="geometry" />
        </mxCell>
        <mxCell id="O68nTqHKKTAHXgfIjmy5-14" value="PEERING" style="shape=flexArrow;endArrow=classic;startArrow=classic;html=1;rounded=0;endSize=4.33;endWidth=8;startWidth=8;startSize=4.33;entryX=0;entryY=0.5;entryDx=0;entryDy=0;exitX=1;exitY=0.5;exitDx=0;exitDy=0;fillColor=default;" edge="1" parent="1" source="O68nTqHKKTAHXgfIjmy5-5" target="O68nTqHKKTAHXgfIjmy5-6">
          <mxGeometry width="100" height="100" relative="1" as="geometry">
            <mxPoint x="560" y="424.5" as="sourcePoint" />
            <mxPoint x="630" y="424.5" as="targetPoint" />
          </mxGeometry>
        </mxCell>
        <mxCell id="O68nTqHKKTAHXgfIjmy5-16" value="Transit&lt;br&gt;Gateway" style="shape=hexagon;perimeter=hexagonPerimeter2;whiteSpace=wrap;html=1;fixedSize=1;fillColor=#dae8fc;strokeColor=#6c8ebf;" vertex="1" parent="1">
          <mxGeometry x="140" y="310" width="90" height="60" as="geometry" />
        </mxCell>
        <mxCell id="O68nTqHKKTAHXgfIjmy5-17" value="VPC&lt;br&gt;&lt;br&gt;10.3.0.0/16" style="rounded=1;whiteSpace=wrap;html=1;verticalAlign=top;fillColor=#dae8fc;strokeColor=#6c8ebf;" vertex="1" parent="1">
          <mxGeometry x="110" y="385" width="150" height="185" as="geometry" />
        </mxCell>
        <mxCell id="O68nTqHKKTAHXgfIjmy5-18" value="Subnet A&lt;br&gt;&lt;br&gt;10.3.2.0/24" style="rounded=1;whiteSpace=wrap;html=1;fillColor=#0050ef;fontColor=#ffffff;strokeColor=#001DBC;" vertex="1" parent="1">
          <mxGeometry x="137.5" y="455" width="95" height="90" as="geometry" />
        </mxCell>
        <mxCell id="O68nTqHKKTAHXgfIjmy5-19" value="VPN Tunnel&lt;br&gt;with BGP" style="endArrow=classic;startArrow=classic;html=1;rounded=0;entryX=0.995;entryY=0.522;entryDx=0;entryDy=0;entryPerimeter=0;exitX=0;exitY=0.531;exitDx=0;exitDy=0;exitPerimeter=0;" edge="1" parent="1" source="O68nTqHKKTAHXgfIjmy5-4" target="O68nTqHKKTAHXgfIjmy5-3">
          <mxGeometry width="50" height="50" relative="1" as="geometry">
            <mxPoint x="460" y="400" as="sourcePoint" />
            <mxPoint x="510" y="350" as="targetPoint" />
          </mxGeometry>
        </mxCell>
      </root>
    </mxGraphModel>
  </diagram>
  <diagram id="pKUdF7U7NlDbukJS595T" name="Azure Connection">
    <mxGraphModel dx="989" dy="577" grid="1" gridSize="10" guides="1" tooltips="1" connect="1" arrows="1" fold="1" page="1" pageScale="1" pageWidth="850" pageHeight="1100" math="0" shadow="0">
      <root>
        <mxCell id="0" />
        <mxCell id="1" parent="0" />
        <mxCell id="GFH8jC2B-gbovfuAINpN-1" value="Azure - westus2&lt;br style=&quot;border-color: var(--border-color);&quot;&gt;Resource group: X" style="rounded=1;whiteSpace=wrap;html=1;fontSize=16;verticalAlign=top;align=center;fillColor=#e1d5e7;strokeColor=#9673a6;" vertex="1" parent="1">
          <mxGeometry x="10" y="428" width="370" height="290" as="geometry" />
        </mxCell>
        <mxCell id="GFH8jC2B-gbovfuAINpN-2" value="VNet" style="rounded=1;whiteSpace=wrap;html=1;verticalAlign=top;fillColor=#ABDEFC;strokeColor=#6c8ebf;" vertex="1" parent="1">
          <mxGeometry x="220" y="478" width="160" height="210" as="geometry" />
        </mxCell>
        <mxCell id="GFH8jC2B-gbovfuAINpN-3" value="VNet" style="rounded=1;whiteSpace=wrap;html=1;verticalAlign=top;fontSize=14;fillColor=#fff2cc;strokeColor=#d6b656;" vertex="1" parent="1">
          <mxGeometry x="30" y="493" width="130" height="120" as="geometry" />
        </mxCell>
        <mxCell id="GFH8jC2B-gbovfuAINpN-4" value="Virtual Network&lt;br&gt;Gateway" style="shape=hexagon;perimeter=hexagonPerimeter2;whiteSpace=wrap;html=1;fixedSize=1;fillColor=#dae8fc;strokeColor=#6c8ebf;" vertex="1" parent="1">
          <mxGeometry x="320" y="498" width="110" height="140" as="geometry" />
        </mxCell>
        <mxCell id="GFH8jC2B-gbovfuAINpN-5" value="Subnet" style="rounded=1;whiteSpace=wrap;html=1;fillColor=#ffe6cc;strokeColor=#d79b00;fontSize=14;" vertex="1" parent="1">
          <mxGeometry x="50" y="538" width="90" height="60" as="geometry" />
        </mxCell>
        <mxCell id="GFH8jC2B-gbovfuAINpN-7" value="Subnet" style="rounded=1;whiteSpace=wrap;html=1;fillColor=#ffe6cc;strokeColor=#d79b00;fontSize=14;" vertex="1" parent="1">
          <mxGeometry x="227.5" y="608" width="85" height="60" as="geometry" />
        </mxCell>
        <mxCell id="GFH8jC2B-gbovfuAINpN-8" value="" style="shape=flexArrow;endArrow=classic;startArrow=classic;html=1;rounded=0;endSize=4.33;endWidth=8;startWidth=8;startSize=4.33;exitX=-0.002;exitY=0.353;exitDx=0;exitDy=0;exitPerimeter=0;" edge="1" parent="1" source="GFH8jC2B-gbovfuAINpN-2">
          <mxGeometry width="100" height="100" relative="1" as="geometry">
            <mxPoint x="230" y="552.5" as="sourcePoint" />
            <mxPoint x="160" y="552.5" as="targetPoint" />
          </mxGeometry>
        </mxCell>
        <mxCell id="GFH8jC2B-gbovfuAINpN-9" value="" style="endArrow=none;dashed=1;html=1;dashPattern=1 3;strokeWidth=2;rounded=0;" edge="1" parent="1">
          <mxGeometry width="50" height="50" relative="1" as="geometry">
            <mxPoint x="190" y="618" as="sourcePoint" />
            <mxPoint x="190" y="558" as="targetPoint" />
          </mxGeometry>
        </mxCell>
        <mxCell id="GFH8jC2B-gbovfuAINpN-10" value="VPC&lt;br style=&quot;font-size: 14px;&quot;&gt;Peering" style="text;html=1;strokeColor=none;fillColor=none;align=center;verticalAlign=middle;whiteSpace=wrap;rounded=0;fontSize=14;" vertex="1" parent="1">
          <mxGeometry x="160" y="628" width="60" height="30" as="geometry" />
        </mxCell>
        <mxCell id="GFH8jC2B-gbovfuAINpN-11" value="Public IP" style="rounded=0;whiteSpace=wrap;html=1;fontSize=14;fillColor=#0050ef;fontColor=#ffffff;strokeColor=#001DBC;" vertex="1" parent="1">
          <mxGeometry x="337.5" y="518" width="75" height="30.61" as="geometry" />
        </mxCell>
        <mxCell id="GFH8jC2B-gbovfuAINpN-12" value="Public IP" style="rounded=0;whiteSpace=wrap;html=1;fontSize=14;fillColor=#0050ef;fontColor=#ffffff;strokeColor=#001DBC;" vertex="1" parent="1">
          <mxGeometry x="340.5" y="597" width="70" height="26.87" as="geometry" />
        </mxCell>
        <mxCell id="yxhY2DIsTt1FnX4rQEG7-1" value="Gateway&lt;br&gt;Subnet" style="rounded=1;whiteSpace=wrap;html=1;fillColor=#dae8fc;strokeColor=#6c8ebf;fontSize=14;" vertex="1" parent="1">
          <mxGeometry x="230" y="518" width="80" height="60" as="geometry" />
        </mxCell>
        <mxCell id="yxhY2DIsTt1FnX4rQEG7-2" value="Local Network&lt;br&gt;Gateway" style="shape=hexagon;perimeter=hexagonPerimeter2;whiteSpace=wrap;html=1;fixedSize=1;fillColor=#dae8fc;strokeColor=#6c8ebf;" vertex="1" parent="1">
          <mxGeometry x="540" y="460" width="110" height="40" as="geometry" />
        </mxCell>
        <mxCell id="yxhY2DIsTt1FnX4rQEG7-3" value="Local Network&lt;br&gt;Gateway" style="shape=hexagon;perimeter=hexagonPerimeter2;whiteSpace=wrap;html=1;fixedSize=1;fillColor=#dae8fc;strokeColor=#6c8ebf;" vertex="1" parent="1">
          <mxGeometry x="540" y="520" width="110" height="40" as="geometry" />
        </mxCell>
        <mxCell id="yxhY2DIsTt1FnX4rQEG7-4" value="Local Network&lt;br&gt;Gateway" style="shape=hexagon;perimeter=hexagonPerimeter2;whiteSpace=wrap;html=1;fixedSize=1;fillColor=#dae8fc;strokeColor=#6c8ebf;" vertex="1" parent="1">
          <mxGeometry x="540" y="580" width="110" height="40" as="geometry" />
        </mxCell>
        <mxCell id="yxhY2DIsTt1FnX4rQEG7-5" value="Local Network&lt;br&gt;Gateway" style="shape=hexagon;perimeter=hexagonPerimeter2;whiteSpace=wrap;html=1;fixedSize=1;fillColor=#dae8fc;strokeColor=#6c8ebf;" vertex="1" parent="1">
          <mxGeometry x="540" y="640" width="110" height="40" as="geometry" />
        </mxCell>
        <mxCell id="oGx6w2FOWhDWxH1kDY-J-1" value="" style="rounded=1;whiteSpace=wrap;html=1;fontSize=16;verticalAlign=top;align=center;glass=1;fillColor=#d5e8d4;strokeColor=#82b366;rotation=90;" vertex="1" parent="1">
          <mxGeometry x="624.85" y="481.45" width="287.11" height="155" as="geometry" />
        </mxCell>
        <mxCell id="oGx6w2FOWhDWxH1kDY-J-2" value="Other Provider" style="text;html=1;strokeColor=none;fillColor=none;align=center;verticalAlign=middle;whiteSpace=wrap;rounded=0;fontSize=16;" vertex="1" parent="1">
          <mxGeometry x="708.41" y="430" width="120" height="30" as="geometry" />
        </mxCell>
        <mxCell id="oGx6w2FOWhDWxH1kDY-J-3" value="Public IP" style="rounded=0;whiteSpace=wrap;html=1;fontSize=16;fillColor=#60a917;fontColor=#ffffff;strokeColor=#2D7600;" vertex="1" parent="1">
          <mxGeometry x="672" y="526" width="70" height="24.37" as="geometry" />
        </mxCell>
        <mxCell id="oGx6w2FOWhDWxH1kDY-J-4" value="Public IP" style="rounded=0;whiteSpace=wrap;html=1;fontSize=16;fillColor=#60a917;strokeColor=#2D7600;fontColor=#ffffff;" vertex="1" parent="1">
          <mxGeometry x="672" y="590" width="70" height="24.37" as="geometry" />
        </mxCell>
        <mxCell id="oGx6w2FOWhDWxH1kDY-J-5" value="Public IP" style="rounded=0;whiteSpace=wrap;html=1;fontSize=16;fillColor=#60a917;strokeColor=#2D7600;fontColor=#ffffff;" vertex="1" parent="1">
          <mxGeometry x="672" y="650" width="70" height="24.37" as="geometry" />
        </mxCell>
        <mxCell id="oGx6w2FOWhDWxH1kDY-J-6" value="Public IP" style="rounded=0;whiteSpace=wrap;html=1;fontSize=16;fillColor=#60a917;strokeColor=#2D7600;fontColor=#ffffff;" vertex="1" parent="1">
          <mxGeometry x="672" y="467.82" width="70" height="24.37" as="geometry" />
        </mxCell>
        <mxCell id="T3rybn51nWz3Zr02SMGT-1" value="" style="endArrow=none;html=1;rounded=0;strokeWidth=3;exitX=1;exitY=0.75;exitDx=0;exitDy=0;fontSize=14;fillColor=#dae8fc;strokeColor=#6c8ebf;" edge="1" parent="1">
          <mxGeometry x="-0.0036" width="50" height="50" relative="1" as="geometry">
            <mxPoint x="425" y="539.66" as="sourcePoint" />
            <mxPoint x="535" y="539.66" as="targetPoint" />
            <mxPoint as="offset" />
            <Array as="points" />
          </mxGeometry>
        </mxCell>
        <mxCell id="T3rybn51nWz3Zr02SMGT-2" value="" style="endArrow=none;html=1;rounded=0;strokeWidth=3;exitX=1;exitY=0.75;exitDx=0;exitDy=0;fontSize=14;fillColor=#dae8fc;strokeColor=#6c8ebf;" edge="1" parent="1">
          <mxGeometry x="-0.0036" width="50" height="50" relative="1" as="geometry">
            <mxPoint x="425" y="601.84" as="sourcePoint" />
            <mxPoint x="535" y="601.84" as="targetPoint" />
            <mxPoint as="offset" />
            <Array as="points" />
          </mxGeometry>
        </mxCell>
        <mxCell id="T3rybn51nWz3Zr02SMGT-3" value="" style="endArrow=none;html=1;rounded=0;strokeWidth=3;exitX=1;exitY=0.75;exitDx=0;exitDy=0;fontSize=14;fillColor=#dae8fc;strokeColor=#6c8ebf;" edge="1" parent="1">
          <mxGeometry x="-0.0036" width="50" height="50" relative="1" as="geometry">
            <mxPoint x="425" y="624.87" as="sourcePoint" />
            <mxPoint x="530" y="660" as="targetPoint" />
            <mxPoint as="offset" />
            <Array as="points" />
          </mxGeometry>
        </mxCell>
        <mxCell id="T3rybn51nWz3Zr02SMGT-4" value="" style="endArrow=none;html=1;rounded=0;strokeWidth=3;exitX=1;exitY=0.75;exitDx=0;exitDy=0;fontSize=14;fillColor=#dae8fc;strokeColor=#6c8ebf;" edge="1" parent="1">
          <mxGeometry x="-0.0036" width="50" height="50" relative="1" as="geometry">
            <mxPoint x="425" y="510" as="sourcePoint" />
            <mxPoint x="530" y="480" as="targetPoint" />
            <mxPoint as="offset" />
            <Array as="points" />
          </mxGeometry>
        </mxCell>
        <mxCell id="T3rybn51nWz3Zr02SMGT-5" value="Virtual Network&lt;br&gt;Gateway Connection" style="text;html=1;strokeColor=none;fillColor=none;align=center;verticalAlign=middle;whiteSpace=wrap;rounded=0;" vertex="1" parent="1">
          <mxGeometry x="420" y="718" width="120" height="30" as="geometry" />
        </mxCell>
        <mxCell id="T3rybn51nWz3Zr02SMGT-8" value="" style="endArrow=none;dashed=1;html=1;dashPattern=1 3;strokeWidth=2;rounded=0;" edge="1" parent="1">
          <mxGeometry width="50" height="50" relative="1" as="geometry">
            <mxPoint x="480" y="708" as="sourcePoint" />
            <mxPoint x="480" y="668" as="targetPoint" />
          </mxGeometry>
        </mxCell>
      </root>
    </mxGraphModel>
  </diagram>
</mxfile>
